<?xml version="1.0" encoding="UTF-8"?>
<svg width="54px" height="54px" viewBox="0 0 54 54" version="1.1" xmlns="http://www.w3.org/2000/svg" xmlns:xlink="http://www.w3.org/1999/xlink">
    <!-- Generator: Sketch 53.2 (72643) - https://sketchapp.com -->
    <title>Group Copy</title>
    <desc>Created with Sketch.</desc>
    <g id="Page-1" stroke="none" stroke-width="1" fill="none" fill-rule="evenodd">
        <g id="Artboard" transform="translate(-83.000000, -520.000000)">
            <g id="Group-Copy" transform="translate(110.000000, 547.000000) scale(-1, 1) translate(-110.000000, -547.000000) translate(83.000000, 520.000000)">
                <circle id="Oval" fill="#1D1D1D" opacity="0.82124256" cx="27" cy="27" r="27"></circle>
                <path d="M27.9080521,22.0035896 C27.667265,22.0237298 27.4392403,22.1204432 27.2573439,22.2795781 L18.4303466,29.9789467 C18.1027891,30.2377773 17.9442039,30.6559799 18.0177258,31.0670623 C18.0912478,31.4781446 18.3849415,31.8153723 18.7818835,31.9444903 C19.1788254,32.0736083 19.6145767,31.9736558 19.9156587,31.6844253 L28,24.6361041 L36.0843407,31.6844253 C36.3854227,31.9736561 36.8211742,32.0736088 37.2181163,31.9444909 C37.6150585,31.8153729 37.9087523,31.478145 37.9822742,31.0670625 C38.0557961,30.6559799 37.8972106,30.2377772 37.5696528,29.9789467 L28.742656,22.2795781 C28.5129815,22.078834 28.2120554,21.9793232 27.9080521,22.0035896 L27.9080521,22.0035896 Z" id="Path" fill="#FFFFFF" fill-rule="nonzero" transform="translate(28.000000, 27.000000) rotate(-270.000000) translate(-28.000000, -27.000000) "></path>
            </g>
        </g>
    </g>
</svg>