<svg xmlns="http://www.w3.org/2000/svg" width="23" height="25" viewBox="0 0 23 25">
  <path fill="#FFF" d="M469.2,34.1204188 L467.550785,19.565445 C467.524607,19.3036649 467.315183,19.1465969 467.053403,19.1465969 L464.226178,19.1465969 L464.226178,17.7591623 C464.226178,14.591623 461.608377,12 458.440838,12 C455.273298,12 452.655497,14.591623 452.655497,17.7591623 L452.655497,19.1465969 L449.828272,19.1465969 C449.566492,19.1465969 449.357068,19.3560209 449.33089,19.565445 L447.681675,34.1204188 C447.681675,34.1465969 447.681675,34.1465969 447.681675,34.1989529 C447.681675,35.7434555 448.93822,37 450.482723,37 L466.372775,37 C467.917277,37 469.173822,35.7434555 469.173822,34.1989529 C469.2,34.1989529 469.2,34.1465969 469.2,34.1204188 Z M454.304712,17.7329843 C454.304712,15.4816754 456.163351,13.6230366 458.440838,13.6230366 C460.718325,13.6230366 462.576963,15.4816754 462.576963,17.7329843 L462.576963,19.1204188 L454.304712,19.1204188 L454.304712,17.7329843 Z" transform="translate(-447 -12)"/>
</svg>
