<svg height="20" viewBox="0 0 21 20" width="21" xmlns="http://www.w3.org/2000/svg"><path d="m18.1933212 16.0116907c0 1.0493139-.8662154 1.9011228-1.9317665 1.9011228h-12.36610554c-1.06555116 0-1.9312066-.8518089-1.9312066-1.9011228v-8.12583785h3.00907635c-.25924865.63058136-.40651084 1.31743506-.40651084 2.03794182 0 2.99291673 2.47266112 5.42642013 5.51197383 5.42642013 3.0393126 0 5.5114138-2.4335034 5.5114138-5.42642013 0-.72050676-.147822-1.40736046-.4059509-2.03794182h3.0090764zm-10.99091166-8.12583785c.64392214-.87994514 1.69211543-1.45646085 2.87637236-1.45646085 1.1842569 0 2.2313303.57651571 2.8758124 1.45646085.4205092.57430903.6735986 1.27605832.6735986 2.03794182 0 1.92650053-1.5930075 3.49219593-3.549411 3.49219593-1.9569635 0-3.54829117-1.5656954-3.54829117-3.49219593 0-.7618835.2519695-1.46363279.67191881-2.03794182zm10.17621006-5.59744387.4451462-.00220676v3.36310054l-3.4049485.01268884-.0123185-3.36475557zm-1.1170649-2.28840898h-12.36610554c-2.14734047 0-3.89544916 1.72016851-3.89544916 3.8353469v12.1763438c0 2.1151784 1.74810869 3.8353469 3.89544916 3.8353469h12.36610554c2.1473404 0 3.896009-1.7201685 3.896009-3.8353469v-12.1763438c0-2.11517839-1.7486686-3.8353469-3.896009-3.8353469z" fill="#1e1e1e" fill-rule="evenodd"/></svg>