<svg height="20" viewBox="0 0 21 20" width="21" xmlns="http://www.w3.org/2000/svg"><path d="m9.99842567 5.52374821.04344823.80643792-.72413803-.09874748c-2.63586256-.37853211-4.93862166-1.66224961-6.89379443-3.81823661l-.95586227-1.0697646-.24620693.78997997c-.5213794 1.76099709-.18827593 3.62074166.89793119 4.87154326.57931048.69123249.44896563.78998004-.55034494.37853211-.34758625-.13166338-.65172426-.23041086-.6806898-.18103708-.10137931.11520543.24620701 1.61287576.52137941 2.20536077.37655185.82289583 1.14413819 1.62933373 1.98413831 2.10661333l.70965533.3785321-.84000019.0164579c-.81103464 0-.84000011.0164579-.75310356.3620741.28965524 1.0697646 1.43379336 2.2053609 2.70827641 2.6990983l.89793112.3456163-.78206911.5266533c-1.1586209.7570641-2.52000049 1.18497-3.88138001 1.2178858-.65172433.0164579-1.18758643.0822896-1.18758643.1316633 0 .1645792 1.76689684 1.0862225 2.79517296 1.4482967 3.0848282 1.0697646 6.74896681.6089429 9.50069147-1.2178858 1.9551728-1.3001755 3.9103456-3.8840683 4.8227596-6.3856716.4924138-1.33309122.9848277-3.76886285.9848277-4.93737493 0-.75706414.0434484-.85581162.854483-1.76099701.4779311-.52665336.9268968-1.10268043 1.0137932-1.26725963.1448276-.31270038.130345-.31270038-.6082759-.03291583-1.2310347.49373754-1.4048278.42790589-.7965519-.31270038.4489656-.52665336.9848278-1.48121245.9848278-1.76099709 0-.0493737-.2172415.03291591-.4634483.18103708-.2606898.16457921-.8400003.41144794-1.2744831.55956919l-.7820691.27978456-.7096553-.54311124c-.3910346-.29624251-.9413795-.62540076-1.2310348-.72414832-.7386208-.23041078-1.8682762-.19749495-2.5344832.06583165-1.8103452.74060627-2.95448336 2.64972461-2.82413843 4.73987996z" fill="#171717" fill-rule="evenodd"/></svg>