<svg xmlns="http://www.w3.org/2000/svg" width="18" height="23" viewBox="0 0 18 23">
  <path fill="#69574E" fill-rule="evenodd" d="M855.607717,181.926255 C855.490032,181.629357 855.393569,181.382274 855.31254,181.171058 C855.331833,181.137184 855.356913,181.109288 855.378135,181.073421 C855.491961,181.15711 855.594212,181.206925 855.594212,181.206925 C856.867524,181.808692 857.604502,180.850249 857.604502,180.850249 C857.851447,180.790471 857.832154,180.619107 857.832154,180.619107 C858.273955,180.647004 858.343408,180.164793 858.343408,180.164793 C858.505466,179.895792 858.73119,179.429522 858.706109,179.114691 C858.744695,178.913438 858.39164,178.596614 858.343408,178.47108 C858.297106,178.341561 858.034727,177.564445 858.034727,177.564445 C857.944051,177.136035 857.068167,175.147416 857.068167,175.147416 C857.313183,174.8286 857.330547,174.406167 857.330547,174.406167 C860.16463,173.272376 860.068167,171.39335 860.068167,171.39335 C859.211576,170.656087 857.450161,171.672315 857.450161,171.672315 C858.20836,170.020446 857.284244,169.020159 858.268167,167.163052 C858.273955,167.069399 858.374277,166.971762 858.096463,166.88608 C855.949196,167.848507 856.753698,169.584066 855.758199,170.594316 C854.199357,170.002512 853.46045,170.331292 853.46045,170.331292 C851.658521,169.946719 850.900322,170.813502 850.900322,170.813502 C849.6791,169.876978 850.786495,168.890639 848.016077,167.7967 C847.933119,167.768803 847.682315,167.814633 847.74791,168.027842 C849.023151,169.060011 848.562058,170.476752 849.490032,171.951279 C849.324116,172.064858 849.28746,172.39563 849.28746,172.39563 C846.665595,171.602573 846.327974,172.409578 846.327974,172.409578 C846.827653,174.350375 848.685531,174.866459 848.685531,174.866459 C848.32283,176.289178 848.4791,177.209761 848.4791,177.209761 C848.309325,178.642444 848.546624,179.662657 848.546624,179.662657 C848.63537,179.907747 848.614148,180.242505 848.666238,180.601174 C848.637299,180.601174 848.612219,180.603166 848.592926,180.603166 C848.006431,180.603166 847.875241,181.671202 847.875241,182.143449 C847.614791,182.382562 843.655949,184.319373 843,184.797598 C845.729904,187.549384 847.987138,189 852.353055,189 C856.560772,189 858.571061,187.549384 861,184.695975 C859.165273,183.667791 857.247588,182.631637 855.607717,181.926255" transform="translate(-843 -166)"/>
</svg>
