<svg xmlns="http://www.w3.org/2000/svg" width="21" height="21" viewBox="0 0 21 21">
  <path fill="#CEC39E" fill-rule="evenodd" d="M18.2005036,16.5930861 C18.2005036,17.6423999 17.3342883,18.4942088 16.2687371,18.4942088 L3.9026316,18.4942088 C2.83708044,18.4942088 1.971425,17.6423999 1.971425,16.5930861 L1.971425,8.4672482 L4.98050135,8.4672482 C4.7212527,9.09782956 4.57399051,9.78468326 4.57399051,10.50519 C4.57399051,13.4981067 7.04665163,15.9316101 10.0859643,15.9316101 C13.125277,15.9316101 15.5973782,13.4981067 15.5973782,10.50519 C15.5973782,9.78468326 15.4495561,9.09782956 15.1914273,8.4672482 L18.2005036,8.4672482 L18.2005036,16.5930861 L18.2005036,16.5930861 L18.2005036,16.5930861 Z M7.20959198,8.4672482 C7.85351412,7.58730306 8.90170741,7.01078735 10.0859643,7.01078735 C11.2702212,7.01078735 12.3172947,7.58730306 12.9617767,8.4672482 C13.3822859,9.04155723 13.6353753,9.74330652 13.6353753,10.50519 C13.6353753,12.4316906 12.0423679,13.9973859 10.0859643,13.9973859 C8.12900084,13.9973859 6.53767317,12.4316906 6.53767317,10.50519 C6.53767317,9.74330652 6.78964267,9.04155723 7.20959198,8.4672482 L7.20959198,8.4672482 L7.20959198,8.4672482 Z M17.3858021,2.86980433 L17.8309483,2.86759757 L17.8309483,6.23069811 L14.4259997,6.24338695 L14.4136812,2.87863138 L17.3858021,2.86980433 L17.3858021,2.86980433 L17.3858021,2.86980433 Z M16.2687371,0.581395349 L3.9026316,0.581395349 C1.75529113,0.581395349 0.00718243871,2.30156386 0.00718243871,4.41674224 L0.00718243871,16.5930861 C0.00718243871,18.7082645 1.75529113,20.428433 3.9026316,20.428433 L16.2687371,20.428433 C18.4160776,20.428433 20.1647462,18.7082645 20.1647462,16.5930861 L20.1647462,4.41674224 C20.1647462,2.30156386 18.4160776,0.581395349 16.2687371,0.581395349 L16.2687371,0.581395349 L16.2687371,0.581395349 Z" transform="translate(.249 .125)"/>
</svg>
