<svg xmlns="http://www.w3.org/2000/svg" width="525" height="488" viewBox="0 0 525 488">
  <path fill="#F6F6F6" fill-rule="evenodd" d="M993,873.104432 C991.354921,872.907914 990.062613,871.32653 990.055486,869.378486 C990.047172,867.417254 991.341855,865.816086 993,865.614292 L993,859.672562 C991.534276,859.300627 990.429638,857.803654 990.421324,856.000692 C990.414197,854.184541 991.52121,852.663827 993,852.290573 L993,846.311914 C991.505769,845.963719 990.377376,844.445643 990.369061,842.618941 C990.363122,840.781686 991.493891,839.246465 993,838.895632 L993,832.940714 C991.480826,832.614941 990.325113,831.088951 990.317986,829.241146 C990.309672,827.384108 991.468948,825.839654 993,825.511243 L993,819.568195 C991.454695,819.267481 990.272851,817.730941 990.264536,815.86467 C990.25741,813.983892 991.441629,812.431524 993,812.128173 L993,806.196995 C991.429751,805.921341 990.2194,804.374249 990.212274,802.485557 C990.203959,800.587632 991.417873,799.022076 993,798.745103 L993,792.824476 C991.40362,792.573881 990.167138,791.017557 990.158824,789.107762 C990.152885,787.188735 991.391742,785.612627 993,785.360714 L993,779.451957 C991.379864,779.227741 990.113688,777.662184 990.107749,775.732605 C990.100622,773.789838 991.366799,772.201859 993,771.977643 L993,766.080757 C991.354921,765.884238 990.062613,764.305492 990.055486,762.354811 C990.047172,760.393578 991.341855,758.792411 993,758.593254 L993,752.709557 C991.329977,752.540735 990.009163,750.947481 990.002036,748.977016 C989.99491,746.994681 991.315724,745.380324 993,745.208865 L993,739.272411 C991.533088,738.900476 990.429638,737.403503 990.421324,735.601859 C990.414197,733.784389 991.52121,732.263676 993,731.890422 L993,725.910443 C991.505769,725.563568 990.376188,724.045492 990.369061,722.218789 C990.363122,720.381535 991.493891,718.846314 993,718.495481 L993,712.539243 C991.480826,712.214789 990.325113,710.687481 990.317986,708.840995 C990.308484,706.982638 991.468948,705.438184 993,705.111092 L993,699.168043 C991.453507,698.86733 990.272851,697.330789 990.264536,695.4632 C990.25741,693.585059 991.441629,692.030054 993,691.728022 L993,685.795524 C991.429751,685.51987 990.2194,683.974097 990.212274,682.085405 C990.203959,680.186162 991.417873,678.621924 993,678.343632 L993,671.908627 C991.505769,671.560432 990.376188,670.044995 990.369061,668.215654 C990.363122,666.3784 991.493891,664.843178 993,664.493665 L993,658.537427 C991.480826,658.211654 990.325113,656.685665 990.317986,654.837859 C990.309672,652.980822 991.468948,651.436368 993,651.109276 L993,645.164908 C991.454695,644.864195 990.272851,643.326335 990.264536,641.460065 C990.25741,639.580605 991.441629,638.028238 993,637.726205 L993,631.793708 C991.429751,631.518054 990.2194,629.970962 990.212274,628.083589 C990.203959,626.184346 991.417873,624.620108 993,624.341816 L993,618.421189 C991.40362,618.171914 990.167138,616.61427 990.158824,614.705795 C990.152885,612.785449 991.391742,611.210659 993,610.957427 L993,605.049989 C991.379864,604.825773 990.113688,603.257578 990.107749,601.328 C990.100622,599.386551 991.366799,597.799892 993,597.574357 L993,591.678789 C991.354921,591.48227 990.062613,589.902205 990.055486,587.951524 C990.047172,585.990292 991.341855,584.389124 993,584.189968 L993,578.246919 C991.533088,577.874984 990.429638,576.37933 990.421324,574.576368 C990.414197,572.758897 991.52121,571.238184 993,570.86493 L993,564.88627 C991.505769,564.538076 990.376188,563.021319 990.369061,561.193297 C990.363122,559.356043 991.493891,557.820822 993,557.471308 L993,551.51507 C991.480826,551.189297 990.325113,549.663308 990.316799,547.815503 C990.308484,545.957146 991.468948,544.414011 993,544.086919 L993,538.142551 C991.453507,537.841838 990.272851,536.305297 990.263348,534.437708 C990.256222,532.558249 991.441629,531.005881 993,530.70253 L993,524.771351 C991.429751,524.495697 990.2194,522.948605 990.212274,521.061232 C990.203959,519.161989 991.417873,517.596432 993,517.319459 L993,511.398832 C991.40362,511.148238 990.167138,509.591914 990.158824,507.683438 C990.152885,505.763092 991.391742,504.188303 993,503.93507 L993,498.026314 C991.379864,497.803416 990.113688,496.235222 990.106561,494.305643 C990.100622,492.365514 991.366799,490.777535 993,490.552 L993,484.655114 C991.353733,484.458595 990.062613,482.879849 990.055486,480.929168 C990.047172,478.967935 991.341855,477.366768 993,477.167611 L993,471.283914 C991.32879,471.116411 990.009163,469.521838 990.002036,467.551373 C989.99491,465.569038 991.315724,463.954681 993,463.783222 L993,457.846768 C991.533088,457.474832 990.429638,455.977859 990.421324,454.176216 C990.414197,452.358746 991.520023,450.838032 993,450.464778 L993,444.4848 C991.505769,444.137924 990.376188,442.619849 990.369061,440.793146 C990.361934,438.955892 991.493891,437.42067 993,437.069838 L993,431.1136 C991.480826,430.789146 990.323925,429.261838 990.316799,427.415351 C990.308484,425.556995 991.46776,424.012541 993,423.685449 L993,417.7424 C991.453507,417.441686 990.272851,415.905146 990.263348,414.037557 C990.256222,412.159416 991.441629,410.604411 993,410.302378 L993,404.369881 C991.429751,404.094227 990.2194,402.548454 990.212274,400.659762 C990.203959,398.760519 991.417873,397.196281 993,396.919308 L992.984559,391 L987.779695,391 C987.473247,392.692173 986.134615,393.971524 984.519231,393.979438 C982.896719,393.986032 981.541459,392.705362 981.232636,391 L975.967195,391 C975.660747,392.692173 974.320928,393.971524 972.706731,393.979438 C971.085407,393.986032 969.728959,392.705362 969.420136,391 L964.161821,391 C963.874378,392.721189 962.526244,394.029557 960.895419,394.03747 C959.25509,394.046703 957.891516,392.734378 957.601697,391 L952.354072,391 C952.089197,392.750205 950.731561,394.088908 949.082919,394.098141 C947.423586,394.106054 946.052885,392.763395 945.785633,391 L940.547511,391 C940.305204,392.777903 938.938066,394.148259 937.272794,394.156173 C935.595645,394.166724 934.214253,392.792411 933.968382,391 L928.739762,391 C928.52121,392.806919 927.145758,394.207611 925.460294,394.216843 C923.765328,394.226076 922.373247,392.820108 922.151131,391 L916.934389,391 C916.736029,392.834616 915.352262,394.268281 913.647794,394.276195 C911.935011,394.282789 910.53224,392.849124 910.332692,391 L905.127828,391 C904.954412,392.863632 903.558767,394.326314 901.83767,394.335546 C900.105882,394.344778 898.692421,392.878141 898.515441,391 L893.269005,391 C892.941176,392.660519 891.617986,393.910854 890.027545,393.920086 C888.422851,393.928 887.080656,392.675027 886.750452,391 L881.471946,391 C881.16431,392.692173 879.824491,393.971524 878.210294,393.979438 C876.588971,393.986032 875.23371,392.705362 874.923699,391 L869.665385,391 C869.377941,392.721189 868.029808,394.029557 866.398982,394.03747 C864.758654,394.046703 863.395079,392.734378 863.106448,391 L857.858824,391 C857.591572,392.750205 856.233937,394.088908 854.58767,394.098141 C852.927149,394.106054 851.556448,392.763395 851.288009,391 L846.051075,391 C845.807579,392.777903 844.442817,394.148259 842.77517,394.156173 C841.09802,394.166724 839.716629,392.792411 839.471946,391 L834.244514,391 C834.023586,392.806919 832.649321,394.207611 830.963857,394.216843 C829.267704,394.226076 827.87681,392.820108 827.654695,391 L822.436765,391 C822.239593,392.835935 820.855826,394.268281 819.152545,394.276195 C817.437387,394.284108 816.035803,392.849124 815.837443,391 L810.631391,391 C810.456787,392.863632 809.063518,394.326314 807.340045,394.335546 C805.609446,394.344778 804.194796,392.878141 804.019005,391 L798.823643,391 C798.67517,392.892649 797.268835,394.386984 795.528733,394.394897 C793.777941,394.402811 792.352602,392.908476 792.200566,391 L786.960068,391 C786.63224,392.660519 785.310238,393.910854 783.718609,393.920086 C782.113914,393.928 780.771719,392.675027 780.441516,391 L775.163009,391 C774.855373,392.692173 773.515554,393.971524 771.902545,393.979438 C770.280034,393.986032 768.924774,392.705362 768.61595,391 L763.35526,391 C763.069005,392.721189 761.720871,394.029557 760.090045,394.03747 C758.449717,394.046703 757.086143,392.734378 756.797511,391 L751.549887,391 C751.282636,392.750205 749.926188,394.088908 748.278733,394.098141 C746.6194,394.106054 745.247511,392.763395 744.979072,391 L739.742138,391 C739.498643,392.777903 738.13388,394.148259 736.466233,394.156173 C734.789084,394.166724 733.407692,392.792411 733.163009,391 L727.838179,391 C727.593495,392.792411 726.212104,394.166724 724.534955,394.156173 C722.86612,394.148259 721.502545,392.777903 721.25905,391 L716.020928,391 C715.753676,392.763395 714.381787,394.106054 712.722455,394.098141 C711.075,394.088908 709.717364,392.750205 709.451301,391 L704.202489,391 C703.915045,392.734378 702.551471,394.046703 700.911143,394.03747 C699.280317,394.029557 697.930995,392.721189 697.64474,391 L692.385238,391 C692.076414,392.705362 690.721154,393.986032 689.098643,393.979438 C687.484446,393.971524 686.144627,392.692173 685.838179,391 L680.558484,391 C680.229468,392.675027 678.887274,393.928 677.282579,393.920086 C675.689762,393.910854 674.368948,392.660519 674.04112,391 L668.799434,391 C668.648586,392.908476 667.222059,394.402811 665.471267,394.394897 C663.731165,394.386984 662.32483,392.892649 662.177545,391 L656.980995,391 C656.805204,392.878141 655.391742,394.344778 653.659955,394.335546 C651.93767,394.326314 650.5444,392.863632 650.369796,391 L645.163744,391 C644.964197,392.849124 643.563801,394.284108 641.848643,394.276195 C640.145362,394.268281 638.761595,392.835935 638.564423,391 L633.346493,391 C633.124378,392.820108 631.732296,394.226076 630.03733,394.216843 C628.351867,394.207611 626.977602,392.806919 626.756674,391 L621.529242,391 C621.284559,392.792411 619.903167,394.166724 618.226018,394.156173 C616.558371,394.148259 615.193609,392.777903 614.950113,391 L609.711991,391 C609.44474,392.763395 608.074038,394.106054 606.413518,394.098141 C604.766063,394.088908 603.408428,392.750205 603.142364,391 L597.89474,391 C597.606109,392.734378 596.242534,394.046703 594.602206,394.03747 C592.97138,394.029557 591.623247,392.721189 591.335803,391 L586.076301,391 C585.767477,392.705362 584.412217,393.986032 582.790894,393.979438 C581.175509,393.971524 579.836878,392.692173 579.529242,391 L574.250735,391 C573.920532,392.675027 572.578337,393.928 570.973643,393.920086 C569.382014,393.910854 568.060011,392.660519 567.732183,391 L562.485747,391 C562.307579,392.878141 560.895305,394.344778 559.163518,394.335546 C557.442421,394.326314 556.046776,392.863632 555.872172,391 L550.667308,391 C550.468948,392.849124 549.066176,394.282789 547.352206,394.276195 C545.648925,394.268281 544.265158,392.834616 544.066799,391 L538.848869,391 C538.626753,392.820108 537.23586,394.226076 535.539706,394.216843 C533.854242,394.207611 532.479977,392.806919 532.260238,391 L527.032805,391 C526.786934,392.792411 525.405543,394.166724 523.728394,394.156173 C522.061934,394.148259 520.695984,392.777903 520.453676,391 L515.215554,391 C514.948303,392.763395 513.576414,394.106054 511.918269,394.098141 C510.269627,394.088908 508.911991,392.750205 508.647115,391 L503.398303,391 C503.109672,392.734378 501.74491,394.046703 500.104581,394.03747 C498.474943,394.029557 497.125622,392.721189 496.839367,391 L491.581052,391 C491.272229,392.705362 489.915781,393.986032 488.293269,393.979438 C486.679072,393.971524 485.340441,392.692173 485.032805,391 L479.767364,391 C479.458541,392.705362 478.103281,393.986032 476.481957,393.979438 C474.866572,393.971524 473.527941,392.692173 473.221493,391 L468.015441,391 L468.001188,396.919308 C469.583314,397.196281 470.796041,398.760519 470.788914,400.659762 C470.781787,402.548454 469.571437,404.094227 468.001188,404.369881 L468.001188,410.302378 C469.559559,410.604411 470.743778,412.159416 470.736652,414.037557 C470.728337,415.905146 469.546493,417.441686 468.001188,417.7424 L468.001188,423.685449 C469.53224,424.012541 470.691516,425.556995 470.683201,427.415351 C470.676075,429.261838 469.520362,430.789146 468.001188,431.1136 L468.001188,437.069838 C469.507296,437.42067 470.638066,438.955892 470.632127,440.793146 C470.623812,442.619849 469.495419,444.137924 468.001188,444.4848 L468.001188,450.464778 C469.479977,450.838032 470.586991,452.358746 470.579864,454.176216 C470.57155,455.977859 469.4681,457.474832 468.001188,457.846768 L468.001188,463.783222 C469.685464,463.954681 471.006278,465.569038 470.997964,467.551373 C470.992025,469.521838 469.67121,471.116411 468.001188,471.283914 L468.001188,477.167611 C469.659333,477.366768 470.954016,478.967935 470.945701,480.929168 C470.938575,482.879849 469.646267,484.458595 468.001188,484.655114 L468.001188,490.552 C469.633201,490.777535 470.900566,492.365514 470.893439,494.305643 C470.886312,496.235222 469.621324,497.803416 468.001188,498.026314 L468.001188,503.93507 C469.608258,504.188303 470.848303,505.763092 470.842364,507.683438 C470.832862,509.591914 469.597568,511.148238 468.001188,511.398832 L468.001188,517.319459 C469.583314,517.596432 470.796041,519.161989 470.788914,521.061232 C470.7806,522.948605 469.571437,524.495697 468.001188,524.771351 L468.001188,530.70253 C469.559559,531.005881 470.743778,532.558249 470.736652,534.437708 C470.728337,536.305297 469.546493,537.841838 468.001188,538.142551 L468.001188,544.086919 C469.53224,544.414011 470.691516,545.957146 470.683201,547.815503 C470.676075,549.663308 469.520362,551.189297 468.001188,551.51507 L468.001188,557.471308 C469.507296,557.820822 470.638066,559.356043 470.630939,561.193297 C470.623812,563.021319 469.495419,564.538076 468.001188,564.88627 L468.001188,570.86493 C469.479977,571.238184 470.586991,572.758897 470.579864,574.576368 C470.57155,576.37933 469.466912,577.874984 468.001188,578.246919 L468.001188,584.189968 C469.659333,584.389124 470.954016,585.990292 470.944514,587.951524 C470.938575,589.902205 469.646267,591.48227 468.001188,591.678789 L468.001188,597.574357 C469.633201,597.799892 470.899378,599.386551 470.893439,601.328 C470.886312,603.257578 469.621324,604.825773 468.001188,605.049989 L468.001188,610.957427 C469.608258,611.210659 470.848303,612.785449 470.842364,614.705795 C470.832862,616.61427 469.597568,618.171914 468.001188,618.421189 L468.001188,624.341816 C469.583314,624.620108 470.796041,626.184346 470.787726,628.083589 C470.7806,629.970962 469.570249,631.518054 468.001188,631.793708 L468.001188,637.726205 C469.558371,638.028238 470.743778,639.580605 470.736652,641.460065 C470.728337,643.326335 469.546493,644.864195 468.001188,645.164908 L468.001188,651.109276 C469.53224,651.436368 470.691516,652.980822 470.683201,654.837859 C470.676075,656.685665 469.520362,658.211654 468.001188,658.537427 L468.001188,664.493665 C469.507296,664.843178 470.638066,666.3784 470.630939,668.215654 C470.623812,670.044995 469.495419,671.560432 468.001188,671.908627 L468.001188,678.343632 C469.583314,678.621924 470.796041,680.186162 470.787726,682.085405 C470.7806,683.974097 469.570249,685.51987 468.001188,685.795524 L468.001188,691.728022 C469.558371,692.030054 470.743778,693.585059 470.736652,695.4632 C470.728337,697.330789 469.546493,698.86733 468.001188,699.168043 L468.001188,705.111092 C469.53224,705.438184 470.691516,706.982638 470.683201,708.840995 C470.676075,710.687481 469.520362,712.214789 468.001188,712.539243 L468.001188,718.495481 C469.507296,718.846314 470.638066,720.381535 470.630939,722.218789 C470.623812,724.045492 469.495419,725.563568 468.001188,725.910443 L468.001188,731.890422 C469.479977,732.263676 470.586991,733.784389 470.579864,735.601859 C470.57155,737.403503 469.466912,738.900476 468.001188,739.272411 L468.001188,745.208865 C469.685464,745.380324 471.00509,746.994681 470.997964,748.977016 C470.992025,750.947481 469.67121,752.540735 468.001188,752.709557 L468.001188,758.593254 C469.658145,758.792411 470.954016,760.393578 470.944514,762.354811 C470.938575,764.305492 469.646267,765.884238 468.001188,766.080757 L468.001188,771.977643 C469.633201,772.201859 470.899378,773.789838 470.893439,775.732605 C470.886312,777.662184 469.621324,779.227741 468.001188,779.451957 L468.001188,785.360714 C469.608258,785.612627 470.848303,787.188735 470.842364,789.107762 C470.832862,791.017557 469.597568,792.573881 468.001188,792.824476 L468.001188,798.745103 C469.583314,799.022076 470.796041,800.587632 470.787726,802.485557 C470.7806,804.374249 469.570249,805.921341 468.001188,806.196995 L468.001188,812.128173 C469.558371,812.431524 470.743778,813.983892 470.736652,815.86467 C470.728337,817.730941 469.546493,819.267481 468.001188,819.568195 L468.001188,825.511243 C469.53224,825.839654 470.691516,827.384108 470.683201,829.241146 C470.676075,831.088951 469.520362,832.614941 468.001188,832.940714 L468.001188,838.895632 C469.507296,839.246465 470.638066,840.781686 470.630939,842.618941 C470.623812,844.445643 469.495419,845.963719 468.001188,846.311914 L468.001188,852.290573 C469.479977,852.663827 470.585803,854.184541 470.578676,856.000692 C470.570362,857.803654 469.466912,859.300627 468.001188,859.672562 L468,865.614292 C469.658145,865.816086 470.954016,867.417254 470.944514,869.378486 C470.938575,871.32653 469.646267,872.907914 468,873.104432 L468,879 L473.342647,879 L473.235747,879 C473.542195,877.307827 474.882014,876.028476 476.495023,876.020562 C478.118722,876.012649 479.473982,877.294638 479.782805,879 L485.048247,879 C485.353507,877.307827 486.693326,876.028476 488.30871,876.020562 C489.930034,876.012649 491.285294,877.294638 491.594118,879 L496.85362,879 C497.141063,877.278811 498.489197,875.969124 500.120023,875.961211 C501.760351,875.951978 503.122738,877.264303 503.412557,879 L508.660181,879 C508.927432,877.249795 510.28388,875.911092 511.931335,875.900541 C513.591855,875.892627 514.962557,877.235286 515.229808,879 L520.46793,879 C520.710238,877.220778 522.076188,875.850422 523.743835,875.842508 C525.419796,875.833276 526.801188,877.207589 527.047059,879 L532.274491,879 C532.494231,877.191762 533.869683,875.79107 535.555147,875.781838 C537.250113,875.773924 538.642195,877.178573 538.86431,879 L544.081052,879 C544.279412,877.164065 545.663179,875.731719 547.366459,875.723805 C549.081618,875.714573 550.482014,877.149557 550.681561,879 L555.887613,879 C556.061029,877.136368 557.455486,875.672368 559.177771,875.664454 C560.909559,875.655222 562.32302,877.120541 562.5,879 L567.746437,879 C568.074265,877.338162 569.396267,876.089146 570.987896,876.078595 C572.59259,876.070681 573.934785,877.323654 574.264989,879 L579.543495,879 C579.851131,877.307827 581.19095,876.028476 582.803959,876.020562 C584.426471,876.012649 585.781731,877.294638 586.091742,879 L591.351244,879 C591.6375,877.277492 592.985633,875.969124 594.616459,875.961211 C596.2556,875.951978 597.620362,877.264303 597.908993,879 L603.157805,879 C603.423869,877.249795 604.780317,875.911092 606.427771,875.900541 C608.087104,875.892627 609.458993,877.235286 609.726244,879 L614.963179,879 C615.207862,877.220778 616.572624,875.850422 618.239084,875.842508 C619.916233,875.831957 621.298812,877.20627 621.544683,879 L626.770928,879 C626.990667,877.191762 628.36612,875.79107 630.051584,875.781838 C631.74655,875.772605 633.137443,877.178573 633.360747,879 L638.577489,879 C638.774661,877.164065 640.158428,875.7304 641.862896,875.722486 C643.576867,875.714573 644.979638,877.149557 645.177998,879 L650.38405,879 C650.557466,877.136368 651.951923,875.672368 653.674208,875.663135 C655.405995,875.655222 656.820645,877.120541 656.996437,879 L662.190611,879 C662.339084,877.107351 663.746606,875.611697 665.486708,875.605103 C667.236312,875.59587 668.661652,877.091524 668.813688,879 L674.055373,879 C674.383201,877.338162 675.705204,876.089146 677.296833,876.078595 C678.901527,876.070681 680.242534,877.323654 680.573925,879 L685.852432,879 C686.160068,877.307827 687.499887,876.028476 689.112896,876.020562 C690.734219,876.012649 692.090667,877.294638 692.400679,879 L697.660181,879 C697.946437,877.277492 699.295758,875.969124 700.925396,875.961211 C702.564536,875.951978 703.929299,877.264303 704.21793,879 L709.465554,879 C709.732805,877.249795 711.088066,875.911092 712.736708,875.900541 C714.394853,875.892627 715.76793,877.235286 716.035181,879 L721.273303,879 C721.516799,877.220778 722.881561,875.850422 724.54802,875.842508 C726.22517,875.831957 727.606561,877.20627 727.852432,879 L733.177262,879 C733.421946,877.20627 734.803337,875.831957 736.480486,875.842508 C738.148133,875.850422 739.512896,877.220778 739.756391,879 L744.994514,879 C745.261765,877.235286 746.633654,875.892627 748.291799,875.900541 C749.940441,875.911092 751.298077,877.249795 751.562952,879 L756.811765,879 C757.100396,877.264303 758.463971,875.951978 760.104299,875.961211 C761.735124,875.969124 763.084446,877.277492 763.370701,879 L768.630204,879 C768.939027,877.294638 770.294287,876.012649 771.916799,876.020562 C773.530995,876.028476 774.869627,877.307827 775.176075,879 L780.456957,879 C780.785973,877.323654 782.128167,876.070681 783.732862,876.078595 C785.324491,876.089146 786.646493,877.338162 786.974321,879 L792.216007,879 C792.366855,877.091524 793.793382,875.59587 795.544174,875.605103 C797.284276,875.611697 798.690611,877.107351 798.839084,879 L804.033258,879 C804.210238,877.120541 805.623699,875.655222 807.355486,875.663135 C809.076584,875.672368 810.471041,877.136368 810.645645,879 L815.850509,879 C816.050057,877.149557 817.452828,875.714573 819.165611,875.722486 C820.870079,875.7304 822.253846,877.164065 822.451018,879 L827.668948,879 C827.891063,877.178573 829.283145,875.772605 830.978111,875.781838 C832.663575,875.79107 834.037839,877.191762 834.257579,879 L839.486199,879 C839.730882,877.20627 841.112274,875.831957 842.789423,875.842508 C844.455882,875.850422 845.82302,877.220778 846.065328,879 L851.30345,879 C851.570701,877.235286 852.941403,875.892627 854.600735,875.900541 C856.249378,875.911092 857.607014,877.249795 857.871889,879 L863.119514,879 C863.409333,877.264303 864.772907,875.951978 866.413235,875.961211 C868.044061,875.969124 869.392195,877.277492 869.679638,879 L874.93914,879 C875.246776,877.294638 876.603224,876.012649 878.225735,876.020562 C879.838744,876.028476 881.177376,877.307827 881.485011,879 L886.764706,879 C887.09491,877.323654 888.437104,876.070681 890.040611,876.078595 C891.633428,876.089146 892.954242,877.338162 893.283258,879 L898.529695,879 C898.706674,877.120541 900.120136,875.655222 901.851923,875.664454 C903.57302,875.672368 904.968665,877.136368 905.142081,879 L910.348133,879 C910.546493,877.149557 911.949265,875.714573 913.663235,875.723805 C915.366516,875.731719 916.750283,877.164065 916.948643,879 L922.165385,879 C922.388688,877.178573 923.779581,875.773924 925.474548,875.781838 C927.160011,875.79107 928.535464,877.191762 928.755204,879 L933.982636,879 C934.228507,877.207589 935.609898,875.833276 937.287048,875.842508 C938.953507,875.850422 940.318269,877.220778 940.562952,879 L945.799887,879 C946.067138,877.235286 947.439027,875.892627 949.097172,875.900541 C950.745814,875.911092 952.102262,877.249795 952.368326,879 L957.617138,879 C957.905769,877.264303 959.270532,875.951978 960.909672,875.961211 C962.540498,875.969124 963.888631,877.278811 964.174887,879 L969.434389,879 C969.7444,877.294638 971.100848,876.012649 972.722172,876.020562 C974.336369,876.028476 975.675,877.307827 975.982636,879 L981.246889,879 C981.555713,877.294638 982.912161,876.012649 984.533484,876.020562 C986.147681,876.028476 987.486312,877.307827 987.793948,879 L993,879 L993,873.104432 Z" transform="translate(-468 -391)"/>
</svg>
