<svg xmlns="http://www.w3.org/2000/svg" width="21" height="20" viewBox="0 0 21 20">
  <path fill="#D0C399" fill-rule="evenodd" d="M9.99842567,5.54119007 L10.0418739,6.34762799 L9.31773587,6.24888051 C6.68187331,5.8703484 4.37911421,4.5866309 2.42394144,2.4306439 L1.46807917,1.3608793 L1.22187224,2.15085927 C0.700492835,3.91185636 1.03359631,5.77160093 2.11980343,7.02240253 C2.69911391,7.71363502 2.56876906,7.81238257 1.56945849,7.40093464 C1.22187224,7.26927126 0.917734229,7.17052378 0.88876869,7.21989756 C0.787389377,7.33510299 1.1349757,8.83277332 1.4101481,9.42525833 C1.78669995,10.2481542 2.55428629,11.054592 3.39428641,11.5318716 L4.10394174,11.9104037 L3.26394155,11.9268616 C2.45290691,11.9268616 2.42394144,11.9433196 2.51083799,12.2889358 C2.80049323,13.3587004 3.94463135,14.4942966 5.2191144,14.9880341 L6.11704552,15.3336504 L5.33497641,15.8603037 C4.17635551,16.6173678 2.81497592,17.0452737 1.4535964,17.0781895 C0.801872073,17.0946474 0.266009972,17.160479 0.266009972,17.2098528 C0.266009972,17.3744319 2.03290681,18.2960753 3.06118293,18.6581494 C6.14601113,19.727914 9.81014974,19.2670923 12.5618744,17.4402637 C14.5170472,16.1400882 16.47222,13.5561954 17.384634,11.054592 C17.8770478,9.72150084 18.3694617,7.28572921 18.3694617,6.11721713 C18.3694617,5.36015299 18.4129101,5.26140552 19.2239447,4.35622012 C19.7018758,3.82956676 20.1508415,3.25353969 20.2377379,3.08896049 C20.3825655,2.77626011 20.3680829,2.77626011 19.629462,3.05604466 C18.3984273,3.5497822 18.2246342,3.48395055 18.8329101,2.74334428 C19.2818757,2.21669092 19.8177379,1.26213183 19.8177379,0.982347193 C19.8177379,0.932973493 19.6004964,1.0152631 19.3542896,1.16338427 C19.0935998,1.32796348 18.5142893,1.57483221 18.0798065,1.72295346 L17.2977374,2.00273802 L16.5880821,1.45962678 C16.1970475,1.16338427 15.6467026,0.834226017 15.3570473,0.735478463 C14.6184265,0.505067684 13.4887711,0.53798351 12.8225641,0.801310114 C11.0122189,1.54191638 9.86808074,3.45103473 9.99842567,5.54119007 L9.99842567,5.54119007 L9.99842567,5.54119007 Z" transform="translate(.185 .125)"/>
</svg>
